PathFileType	4	(X/Y/Z)	/Users/visionmauri/1_6_1_f_Sports2D/1_6_1_f_Sports2D_m_person00.trc
DataRate	CameraRate	NumFrames	NumMarkers	Units	OrigDataRate	OrigDataStartFrame	OrigNumFrames
30.0	30.0	8	22	m	30.0	223	447
Frame#	Time	Hip			RHip			RKnee			RAnkle			RBigToe			RSmallToe			RHeel			LHip			LKnee			LAnkle			LBigToe			LSmallToe			LHeel			Neck			Head			Nose			RShoulder			RElbow			RWrist			LShoulder			LElbow			LWrist			
		X1	Y1	Z1	X2	Y2	Z2	X3	Y3	Z3	X4	Y4	Z4	X5	Y5	Z5	X6	Y6	Z6	X7	Y7	Z7	X8	Y8	Z8	X9	Y9	Z9	X10	Y10	Z10	X11	Y11	Z11	X12	Y12	Z12	X13	Y13	Z13	X14	Y14	Z14	X15	Y15	Z15	X16	Y16	Z16	X17	Y17	Z17	X18	Y18	Z18	X19	Y19	Z19	X20	Y20	Z20	X21	Y21	Z21	X22	Y22	Z22
223	7.449999999999999	0.5142123280920476	0.8401214877968035	0.0301	0.45757990612477123	0.8050582358295043	0.0301	0.5663096440260722	0.5395620124788182	0.129	0.7327091014681801	0.29312014923397695	0.023	0.6913157324064946	0.1865560351426574	0.2179	0.6722799905507998	0.19688031692460098	0.1804	0.7773725641383116	0.25947686698594113	-0.0119	0.5723922349809659	0.8668133348742031	0.0301	0.6485211819187712	0.606880600441266	0.129	0.7677985336994517	0.3210185963885861	0.023	0.7860804140163067	0.24952747949997886	0.2179	0.8019622876295829	0.2638113791131782	0.1804	0.8019118908730127	0.28666268294441777	-0.0119	0.3141797475025959	1.2118748562755408	0.0008	0.17218290778286208	1.3417597382977373	0.0655	0.23419076098913655	1.215822192946525	0.1076	0.23320216931814092	1.1307447157988275	-0.01275	0.3042427883076625	0.9627184128010777	0.0702	0.3416410737567574	0.8119241581710924	0.1076	0.44965495390196936	1.2320599235733949	-0.01275	0.6042762809399944	1.0578963651408264	0.0702	0.578305200701908	0.9252273329470636	0.1076
224	7.483408071748879	0.5127608193628024	0.8377716659401251	0.0301	0.4542285766687199	0.8030399490445457	0.0301	0.567192367146021	0.5405640513730822	0.129	0.7332702266585478	0.29347680859330294	0.023	0.6991157248105391	0.18915107829590816	0.2179	0.6770029809375265	0.19867690603947427	0.1804	0.778037534384493	0.2589619755186495	-0.0119	0.5731592014688556	0.8660705023878065	0.0301	0.6524401877766215	0.6080254756601972	0.129	0.7683236530410829	0.32471673016886315	0.023	0.7946620853576767	0.2540019616387786	0.2179	0.8055460088339681	0.2650286884861077	0.1804	0.8000887338948061	0.2874301246328652	-0.0119	0.3125251409345143	1.210148373625894	0.0008	0.17349980214366373	1.3434278021056056	0.0655	0.23473252256470417	1.216983747780663	0.1076	0.22870724867526024	1.1272722287889676	-0.01275	0.29961707722790604	0.9608729157894751	0.0702	0.33918705543264704	0.8097512196316754	0.1076	0.44602163256709837	1.2328837477410262	-0.01275	0.6040009440166143	1.061040278738885	0.0702	0.5856331934509379	0.9437267145899658	0.1076
225	7.516816143497757	0.5117283011254233	0.8351389781567863	0.0301	0.45205363470166565	0.7988891754411699	0.0301	0.5672214068671635	0.5425201829374123	0.129	0.7311565772120754	0.29665616320210314	0.023	0.7059103377242876	0.1944601852778989	0.2179	0.6821970642021039	0.2015120822148105	0.1804	0.7754001244577702	0.26231562570226297	-0.0119	0.5755419532262809	0.863107794965173	0.0301	0.6584848923424007	0.6065565950631476	0.129	0.7674750128916409	0.32747270774542725	0.023	0.7968510504753846	0.2547845227277764	0.2179	0.8021975972018313	0.2613514291047594	0.1804	0.7977486245984222	0.2879511956046363	-0.0119	0.3117636549687116	1.2099315707884397	0.0008	0.17656954021605129	1.3452403330144922	0.0655	0.23513691455368682	1.21878809247156	0.1076	0.22430518458772192	1.1254764569805025	-0.01275	0.2950325153777997	0.9587441352396328	0.0702	0.3380439853931806	0.806658546068979	0.1076	0.44628468360463674	1.2318778784066373	-0.01275	0.6050529786154516	1.0620593907076565	0.0702	0.5908440931627319	0.945541068422524	0.1076
226	7.550224215246637	0.5107311743643503	0.8322012880679016	0.0301	0.451169969944034	0.7939122460690768	0.0301	0.5665189599821525	0.5442388863991111	0.129	0.7275342993041096	0.3008975039523543	0.023	0.7098808879037557	0.19960668551858127	0.2179	0.6864612547845366	0.20437910723990976	0.1804	0.7715445509627312	0.2667280192442947	-0.0119	0.5786067385786814	0.8577243516916183	0.0301	0.6638905324493262	0.6028545423344942	0.129	0.7673731419980592	0.32802444400381325	0.023	0.7913762791316332	0.2508428487536581	0.2179	0.7960226758322309	0.25426249952902413	0.1804	0.79704005439669	0.2878564272410932	-0.0119	0.3119390927048178	1.2098147094470315	0.0008	0.17971838398279524	1.3471339631187267	0.0655	0.2363122714037923	1.219781597302202	0.1076	0.2200073535253251	1.1240895612337563	-0.01275	0.2904263447453013	0.9564567672243929	0.0702	0.337049804853884	0.8043922391966791	0.1076	0.450077935802946	1.2300499292233287	-0.01275	0.6072492468432511	1.0617673534662135	0.0702	0.5933864078769674	0.9285947302095551	0.1076
227	7.583632286995515	0.5092937096249581	0.8300786980575559	0.0301	0.45052255254585893	0.7902411614137416	0.0301	0.5656174862802285	0.5446380823158047	0.129	0.7253260705362009	0.30423948582952365	0.023	0.7110850872312721	0.20335440817429776	0.2179	0.6886365058727653	0.20703873779846244	0.1804	0.7694433978628217	0.26949222745716334	-0.0119	0.5806515832955763	0.852579570313896	0.0301	0.6671779498299204	0.600875941499342	0.129	0.7700734279653627	0.3277133429180621	0.023	0.7843169551472498	0.24528979859662114	0.2179	0.796095680080802	0.24922233213215	0.1804	0.7991667964352411	0.2884429746871887	-0.0119	0.3121338300940486	1.2079976611887602	0.0008	0.1819739492410292	1.3490327870240402	0.0655	0.23996854150662358	1.2191806934162894	0.1076	0.2162194650302504	1.1211861441474238	-0.01275	0.28609020685517006	0.9530923494903265	0.0702	0.33554950472862993	0.8024564071951941	0.1076	0.45378995713686865	1.2289565751102431	-0.01275	0.6094074221176369	1.0615429470839142	0.0702	0.594607933900326	0.9065478928741293	0.1076
228	7.6170403587443944	0.5077006251967605	0.8298289153995652	0.0301	0.4489473776350617	0.7887509714965396	0.0301	0.5651997121354582	0.5441122642903783	0.129	0.7254511577695214	0.30674023727637667	0.023	0.7106285001846063	0.2070293722586983	0.2179	0.6877585821213391	0.21056704539054	0.1804	0.7691518691697191	0.2717667205007054	-0.0119	0.580808267996809	0.8505956694436355	0.0301	0.6701949152643433	0.6022200456026241	0.129	0.7756817244172457	0.32793279279346504	0.023	0.7814552146068553	0.2426144657967443	0.2179	0.8004172939924157	0.24847464280988749	0.1804	0.803861426906177	0.29040068224331067	-0.0119	0.3117249576082435	1.2045742975711804	0.0008	0.18570385398469927	1.350341292671367	0.0655	0.2474270134561673	1.2175682090351618	0.1076	0.21271340640053826	1.1171439227587427	-0.01275	0.28209310301296375	0.9490546039999089	0.0702	0.33451722110772103	0.8003464150458085	0.1076	0.45609664742709294	1.22865140088287	-0.01275	0.6107315510706458	1.0622772340194222	0.0702	0.5971474182021282	0.8962562605546456	0.1076
229	7.650448430493273	0.506632645504296	0.8306445664815382	0.0301	0.44647873418053075	0.7890607397041128	0.0301	0.5654710180176917	0.5436783643325519	0.129	0.7258712323590438	0.3085830820304339	0.023	0.7092401833311667	0.2110178709842323	0.2179	0.6842522529826461	0.21543035810508954	0.1804	0.7677233691642336	0.27472353916695186	-0.0119	0.5797587337044332	0.8523144029107564	0.0301	0.6743067651165744	0.606592202212994	0.129	0.7831077802876263	0.3294449785063693	0.023	0.7835277110922393	0.24393610357023413	0.2179	0.8035374180734925	0.25126089116619604	0.1804	0.8098098152768487	0.2923232816130823	-0.0119	0.3120199155955424	1.2009021866024336	0.0008	0.1935067774872839	1.3509207379126638	0.0655	0.258206773252508	1.2165602625154182	0.1076	0.20992792699576587	1.1135159865476325	-0.01275	0.27853008049196126	0.9451559242619428	0.0702	0.3347342030166842	0.798740354810945	0.1076	0.45918175219071816	1.2278552320560578	-0.01275	0.6108816664382434	1.0645408806440013	0.0702	0.6026802027529824	0.9025382277795546	0.1076
230	7.683856502242152	0.5062681266766779	0.8313922026089285	0.0301	0.44408359853553897	0.7903304173306555	0.0301	0.5656874277821926	0.5436109858342043	0.129	0.7254192390564149	0.30936286952918474	0.023	0.7068245599763866	0.21275275777083652	0.2179	0.6810865787708534	0.21921002472783127	0.1804	0.7649054855892327	0.2765612483198289	-0.0119	0.5785566913119932	0.8559439099924894	0.0301	0.6778893940411543	0.6156653901354984	0.129	0.7902751745057021	0.3332759389268222	0.023	0.7901561120240895	0.24805023649382335	0.2179	0.8091922077729997	0.2576129386082023	0.1804	0.8141924134853995	0.29348905809180575	-0.0119	0.31461716998336636	1.197937479579833	0.0008	0.2036015465883134	1.3519884521639387	0.0655	0.2705032340784742	1.2171692235625124	0.1076	0.2089938339657785	1.110782207452954	-0.01275	0.2752418354882815	0.94095545272121	0.0702	0.33550239845481294	0.7979799814343693	0.1076	0.4637520598722915	1.2265631509064003	-0.01275	0.6100974217340897	1.0680267402406955	0.0702	0.6099041720435079	0.9143331247280675	0.1076
